# xmcd
#
# Track frame offsets: 
#        150
#        10511
#        25623
#        39874
#        52389
#        63224
#        74541
#        85910
#        98295
#        111249
#        125080
#        136820
#        150918
#        161821
#        173671
#        185429
#        196939
#        210113
#
# Disc length: 2938 seconds
#
# Revision: 4
# Processed by: cddbd v1.5.1PL0 Copyright (c) Steve Scherf et al.
# Submitted via: ExactAudioCopy v0.95a5
#
DISCID=dd0b7812
DTITLE=Various Artist - Bona Fide Bluegrass and Mountain Music
DYEAR=2002
DGENRE=Bluegrass
TTITLE0=Harry McClintock - The Big Rock Candy Mountains
TTITLE1=Jimmie Rodgers - In The Jailhouse Now
TTITLE2=The Carter Family - Keep On The Sunny Side
TTITLE3=Prairie Ramblers - Shady Grove
TTITLE4=Wade Mainer, Zeke Morris and Steve Ledford - Little Maggie
TTITLE5=The Monroe Brothers - Sinner You Better Get Ready
TTITLE6=The Monroe Brothers - Roll In My Sweet Baby's Arms
TTITLE7=Bill Monroe and His Bluegrass Boys - Mule Skinner Blues
TTITLE8=Bill Monroe and His Bluegrass Boys - Tennessee Blues
TTITLE9=Bill Monroe and His Bluegrass Boys - Six White Horses
TTITLE10=Byron Parker and His Mountaineers - C. and N. W. Railroad Blues (
TTITLE10=Fiddlin' Break Down)
TTITLE11=Morris Brothers - Sombody Loves You Darlin'
TTITLE12=Morris Brothers - Salty Dog Blues
TTITLE13=Jimmy Murphy - Electricity
TTITLE14=Jimmy Murphy - We Live A Long, Long Time
TTITLE15=Lonesome Pine Fiddlers - Twenty-One Years
TTITLE16=Jimmy Martin and The Osborne Brothers With The Sunny Mountain B
TTITLE16=oys - That's How I Can Count On You
TTITLE17=The Country Pardners - Pretty Polly
EXTD=
EXTT0=
EXTT1=
EXTT2=
EXTT3=
EXTT4=
EXTT5=
EXTT6=
EXTT7=
EXTT8=
EXTT9=
EXTT10=
EXTT11=
EXTT12=
EXTT13=
EXTT14=
EXTT15=
EXTT16=
EXTT17=
PLAYORDER=
